<svg width="73" height="70" fill="none" xmlns="http://www.w3.org/2000/svg"><path clip-rule="evenodd" d="M1.532 46.824H71.21l-7.581 21.613H8.306L1.532 46.824z" stroke="#9494A8" stroke-width="2.472" stroke-miterlimit="22.926" stroke-linecap="round" stroke-linejoin="round"/><path d="M18.63 14.243H5.08v29.678h13.55V14.243zm16.612 0H20.565v29.678h14.677V14.243zm16.774 0H37.339v29.678h14.677V14.243zm15.807 0H54.274v29.678h13.549V14.243z" stroke="#9494A8" stroke-width="1.124" stroke-miterlimit="22.926" stroke-linecap="round" stroke-linejoin="round"/><path clip-rule="evenodd" d="M1.532 11.663H71.21v35.323H47.016v-.162H1.532V11.663z" stroke="#9494A8" stroke-width="2.472" stroke-miterlimit="22.926" stroke-linecap="round" stroke-linejoin="round"/><path d="M13.468 51.985l3.064 11.29m7.904-11.612l1.774 11.451m9.516-11.613v11.774m22.419-11.29l-3.226 11.29m-7.742-11.612l-1.935 11.451" stroke="#9494A8" stroke-width="1.124" stroke-miterlimit="22.926" stroke-linecap="round" stroke-linejoin="round"/><path clip-rule="evenodd" d="M7.661 1.501h57.42c1.129 1.936 6.29 9.839 6.29 10.162l-70-.162 6.29-10v0z" stroke="#9494A8" stroke-width="2.472" stroke-miterlimit="22.926" stroke-linecap="round" stroke-linejoin="round"/><path d="M12.823 4.243L10.08 8.437m10.162-4.033l-1.29 3.871m9.193-3.871l-.484 4.033m8.71-4.033v4.033M52.5 4.404l1.29 3.871m6.13-4.032l2.741 4.194-2.742-4.194zm-23.549.161v4.033-4.033zm8.226 0l.484 4.033-.484-4.033z" stroke="#9494A8" stroke-width="1.124" stroke-miterlimit="22.926" stroke-linecap="round" stroke-linejoin="round"/><path clip-rule="evenodd" d="M7.661 1.501h57.42c1.129 1.936 6.29 9.839 6.29 10.162l-70-.162 6.29-10v0z" stroke="#9494A8" stroke-width="2.472" stroke-miterlimit="22.926" stroke-linecap="round" stroke-linejoin="round"/><path d="M12.823 4.243L10.08 8.437m10.162-4.033l-1.29 3.871m9.193-3.871l-.484 4.033m8.71-4.033v4.033M52.5 4.404l1.29 3.871m6.13-4.032l2.741 4.194-2.742-4.194zm-23.549.161v4.033-4.033zm8.226 0l.484 4.033-.484-4.033z" stroke="#9494A8" stroke-width="1.124" stroke-miterlimit="22.926" stroke-linecap="round" stroke-linejoin="round"/></svg>