<svg width="69" height="77" fill="none" xmlns="http://www.w3.org/2000/svg"><path d="M17.747 15.792H5.212v32.345h12.535V15.792zm15.631 0H19.605v32.345h13.773V15.792zm15.632 0H35.235v32.345h13.773V15.792zm14.547 0H51.02v32.345h12.536V15.792z" stroke="#9494A8" stroke-width="1.387" stroke-miterlimit="22.926" stroke-linecap="round" stroke-linejoin="round"/><path clip-rule="evenodd" d="M1.807 13.006h65v7.274h-.155v31.262h-22.44v-.155H1.807V13.006z" stroke="#9494A8" stroke-width="2.773" stroke-miterlimit="22.926" stroke-linecap="round" stroke-linejoin="round"/><path d="M8.616 58.351v11.762m7.274-11.762v11.762m6.655-11.762v11.762m7.119-11.762v11.762m6.81-11.762v11.762m7.119-11.762v11.762m6.809-11.762v11.762m7.274-11.762v11.762" stroke="#9494A8" stroke-width="1.387" stroke-miterlimit="22.926" stroke-linecap="round" stroke-linejoin="round"/><path clip-rule="evenodd" d="M7.533 1.553h53.393l5.88 11.608v2.476h-.154V75.22h-22.44v-.155H1.807V12.696L7.533 1.553z" stroke="#9494A8" stroke-width="2.773" stroke-miterlimit="22.926" stroke-linecap="round" stroke-linejoin="round"/><path clip-rule="evenodd" d="M10.01 3.565h10.059l-1.703 7.12H6.295l3.714-7.12v0zm11.606 0h11.762v7.12h-13.31l1.548-7.12zm36.988 0H48.39l1.703 7.12h12.226l-3.715-7.12v0zm-11.761 0H35.08v7.12h13.31l-1.548-7.12z" stroke="#9494A8" stroke-width="1.387" stroke-miterlimit="22.926" stroke-linecap="round" stroke-linejoin="round"/></svg>