<svg width="69" height="71" fill="none" xmlns="http://www.w3.org/2000/svg"><path d="M67.018 1.927h-65v67.61h65V1.927z" stroke="#9494A8" stroke-width="2.734" stroke-miterlimit="22.926" stroke-linecap="round" stroke-linejoin="round"/><path d="M45.09 42.128H2.018v27.41H45.09v-27.41zm1.827-4.047h-44.9v4.047h44.9V38.08z" stroke="#9494A8" stroke-width="2.734" stroke-miterlimit="22.926" stroke-linecap="round" stroke-linejoin="round"/><path clip-rule="evenodd" d="M2.018 1.927h65l-4.96 9.528H7.89L2.018 1.927z" stroke="#9494A8" stroke-width="1.367" stroke-miterlimit="22.926" stroke-linecap="round" stroke-linejoin="round"/><path d="M7.891 11.455v26.627m54.167-26.627v58.082M45.09 44.869h16.968M20.943 14.457H10.24v23.624h10.703V14.457zm13.052 0H23.293v23.624h10.702V14.457zm12.792 0H36.084v23.624h10.703V14.457zm12.791 0H48.875v30.412h10.703V14.457zM46.656 40.3v4.569m-22.189-2.741L2.67 69.538m31.848-27.41L12.72 69.538m32.5-27.41l-21.797 27.41M45.09 55.833L34.257 69.537M14.94 42.128L2.017 58.443" stroke="#9494A8" stroke-width="1.367" stroke-miterlimit="22.926" stroke-linecap="round" stroke-linejoin="round"/></svg>