<svg width="31" height="40" fill="none" xmlns="http://www.w3.org/2000/svg"><g clip-path="url(#clip0_347_685)"><path fill-rule="evenodd" clip-rule="evenodd" d="M14.624.436c8.181 0 15.454 6.363 15.454 14.545 0 8.182-10.909 23.637-15.454 23.637C10.987 38.617.078 23.163.078 14.98S6.442.436 14.624.436z" fill="#EF7F1A"/><path d="M14.624 27.708c6.527 0 11.818-5.29 11.818-11.818 0-6.527-5.291-11.818-11.818-11.818-6.527 0-11.819 5.291-11.819 11.818 0 6.527 5.292 11.818 11.819 11.818z" fill="#FEFEFE"/><path fill-rule="evenodd" clip-rule="evenodd" d="M21.896 12.254h-5.454l-3.637-2.727-2.727 1.818v-.91H8.26v2.728l-2.727 1.818H8.26v6.364h13.636V14.98h2.728l-2.728-2.727zm-5.454 2.727h4.545v5.455h-4.545V14.98zm-3.637-3.636l3.637 2.727H9.169l3.636-2.727zm-2.727 3.636h5.455v5.455h-5.455V14.98z" fill="#EF7F1A"/><path fill-rule="evenodd" clip-rule="evenodd" d="M21.896 12.254h-5.454l-3.637-2.727-2.727 1.818v-.91H8.26v2.728l-2.727 1.818h19.091l-2.728-2.727zm-9.09-.91l3.636 2.728H9.169l3.636-2.727z" fill="#5B5B5B"/></g><defs><clipPath id="clip0_347_685"><path fill="#fff" transform="translate(.078 .027)" d="M0 0h30v39H0z"/></clipPath></defs></svg>