<svg width="69" height="74" fill="none" xmlns="http://www.w3.org/2000/svg"><path clip-rule="evenodd" d="M2 12.014h64.601V71.59H44.27v-.186H2v-59.39z" stroke="#9494A8" stroke-width="2.976" stroke-miterlimit="22.926" stroke-linecap="round" stroke-linejoin="round"/><path d="M17.752 14.248H4.99v31.09h12.76v-31.09zm15.352 0H19.347v31.09h13.757v-31.09zm15.951 0H35.297v31.09h13.758v-31.09zm14.755 0H51.05v31.09h12.76v-31.09zM17.752 47.014H4.99V68.61h12.76V47.014zm15.352 0H19.347V68.61h13.757V47.014zm15.951 0H35.297V68.61h13.758V47.014zm14.755 0H51.05V68.61h12.76V47.014z" stroke="#9494A8" stroke-width="1.488" stroke-miterlimit="22.926" stroke-linecap="round" stroke-linejoin="round"/><path clip-rule="evenodd" d="M8.181 1.589h53.037C62.215 3.45 67 11.828 67 12.014l-64.402-.186 5.583-10.24v0z" stroke="#9494A8" stroke-width="2.976" stroke-miterlimit="22.926" stroke-linecap="round" stroke-linejoin="round"/><path d="M12.966 4.381l-2.592 4.282m9.371-4.096l-.997 4.096m8.375-4.096l-.599 4.096M34.7 4.381v4.282m14.953-4.096l.997 4.096m5.782-4.282l2.593 4.282-2.593-4.282zm-21.733 0v4.282-4.282zm7.577.186l.399 4.096-.399-4.096z" stroke="#9494A8" stroke-width="1.488" stroke-miterlimit="22.926" stroke-linecap="round" stroke-linejoin="round"/></svg>