<svg width="96" height="98" fill="none" xmlns="http://www.w3.org/2000/svg"><path d="M6.595 13.998h69.517a1.1 1.1 0 011.088 1.088v74.152a1.1 1.1 0 01-1.088 1.088H6.595a1.07 1.07 0 01-1.088-1.088V77.415h2.128v10.783h67.39V16.174H7.635v61.241H5.507V15.086a1.07 1.07 0 011.088-1.088z" fill="#EF7F1A"/><path d="M10.662 18.917h61.336c.284 0 .52.236.52.52v65.45c0 .284-.236.52-.52.52H10.662a.525.525 0 01-.52-.52v-65.45c0-.284.236-.52.52-.52zm60.816 1.087H11.23V84.32h60.248V20.005zM13.12 76.895V22.653c0-.284.237-.52.568-.52h22.983c.284 0 .52.236.52.52v59.019c0 .33-.236.567-.52.567H13.689a.546.546 0 01-.568-.568v-4.775zm1.088.52v3.736h21.943V23.173H14.209v54.242z" fill="#EF7F1A"/><path clip-rule="evenodd" d="M13.689 22.653h22.983v59.019H13.689V22.653zm25.395-1.703h31.448v62.471H39.084v-62.47zm2.884 2.838h25.68v56.749h-25.68V51.878h-.85c-.616 0-1.088-.472-1.088-1.04 0-.568.472-1.04 1.087-1.04h.852v-26.01 0z" stroke="#EF7F1A" stroke-width="1.255" stroke-miterlimit="22.926" stroke-linecap="round" stroke-linejoin="round"/><path d="M79.28 89.616H2.009v7.047H79.28v-7.047z" stroke="#EF7F1A" stroke-width="2.46" stroke-miterlimit="22.926" stroke-linecap="round" stroke-linejoin="round"/><path d="M45.373 49.798h-4.918a1.04 1.04 0 00-1.04 1.04v.047c0 .575.466 1.04 1.04 1.04h4.918a1.04 1.04 0 001.04-1.04v-.047a1.04 1.04 0 00-1.04-1.04z" stroke="#EF7F1A" stroke-width="1.255" stroke-miterlimit="22.926" stroke-linecap="round" stroke-linejoin="round"/><path d="M13.878 7.047h69.517a1.1 1.1 0 011.088 1.087v74.2c0 .567-.473 1.04-1.088 1.04h-7.14v-2.128h6.1V9.222h-67.39v5.864h-2.128V8.134c0-.567.473-1.087 1.04-1.087z" fill="#EF7F1A"/><path clip-rule="evenodd" d="M76.254 82.712h10.31v7.046h-10.31v-7.046z" stroke="#EF7F1A" stroke-width="2.46" stroke-miterlimit="22.926" stroke-linecap="round" stroke-linejoin="round"/><path d="M21.208 0h69.517c.568 0 1.04.473 1.04 1.088V75.24c0 .615-.472 1.088-1.04 1.088h-7.188V74.2h6.1V2.176H22.249v5.817H20.12V1.088A1.07 1.07 0 0121.208 0z" fill="#EF7F1A"/><path clip-rule="evenodd" d="M83.537 75.618h10.357v7.094H83.537v-7.094z" stroke="#EF7F1A" stroke-width="2.46" stroke-miterlimit="22.926" stroke-linecap="round" stroke-linejoin="round"/></svg>