<svg width="100" height="96" fill="none" xmlns="http://www.w3.org/2000/svg"><path clip-rule="evenodd" d="M1.087 1.428H94.9l4.013 3.512H5.1v76.756l-4.013-3.68V1.429v0zm79.766 76.589h-4.014V75.34l2.676 1.17 1.338-2.34v3.846z" stroke="#EF7F1A" stroke-width="2.174" stroke-miterlimit="22.926" stroke-linecap="round" stroke-linejoin="round"/><path clip-rule="evenodd" d="M5.1 4.94h93.813v76.756h-18.06V74.17l-1.338 2.34-3.679-1.671-3.01 2.842-2.843-2.675-3.679 1.338v5.35H5.1V4.94z" stroke="#EF7F1A" stroke-width="2.174" stroke-miterlimit="22.926" stroke-linecap="round" stroke-linejoin="round"/><path clip-rule="evenodd" d="M14.632 13.636h74.582v34.448l-3.177-1.17-.67-3.847h-4.013l-1.839-3.512-3.846 1.505-2.843-2.675-3.01 2.675-3.679-1.505-2.007 3.68-3.846-.168-.669 4.013-3.679 1.17.67 4.014-3.01 2.341 2.006 3.512-2.007 3.345 3.178 2.508-.837 3.846 3.847 1.338.501 3.846H14.632V13.636v0zm74.582 37.123v1.505l-.167-.167.167-1.338zm0 12.877v1.337l-.167-1.17.167-.167v0zm0 4.347V73h-3.846l.669-4.013 3.177-1.004zM85.034 73h-3.68l.168-.167 3.511.167zm-20.736 0H61.12h3.178z" stroke="#EF7F1A" stroke-width="1.171" stroke-miterlimit="22.926" stroke-linecap="round" stroke-linejoin="round"/><path clip-rule="evenodd" d="M72.826 43.903L75 45.743l2.675-1.004 1.338 2.509h2.843l.502 2.675 2.675 1.003-.501 2.843 2.174 1.84L85.2 57.95l1.505 2.508-2.174 1.673.501 3.01-2.675.836-.502 2.843-2.843-.168-1.338 2.676L75 70.158l-2.174 2.006-2.007-2.007-2.843 1.17-1.337-2.507h-2.843l-.334-2.843-2.843-.836.669-2.843-2.342-1.84 1.506-2.34-1.506-2.51 2.174-1.839-.501-2.843 2.675-.836.502-2.842h2.843l1.338-2.509 2.675 1.17 2.174-2.006z" stroke="#EF7F1A" stroke-width="1.171" stroke-miterlimit="22.926" stroke-linecap="round" stroke-linejoin="round"/><path clip-rule="evenodd" d="M66.304 94.572V76.345l3.68-1.338 2.842 2.675 3.01-2.842 3.679 1.672 1.338-2.341v20.401l-7.358-3.177-7.19 3.177z" stroke="#EF7F1A" stroke-width="2.174" stroke-miterlimit="22.926" stroke-linecap="round" stroke-linejoin="round"/><path clip-rule="evenodd" d="M72.826 38.385l2.843 2.675 3.846-1.505 1.84 3.512h4.013l.669 3.846 3.846 1.338-.836 3.846 3.177 2.508-2.174 3.345 2.174 3.512-3.177 2.34.836 4.014-3.846 1.17-.67 4.014-3.845-.167-2.007 3.679-3.679-1.672-3.01 2.842-2.843-2.675-3.846 1.505L64.297 73h-4.013l-.501-3.846-3.847-1.338.837-3.846-3.178-2.508 2.007-3.345-2.007-3.511 3.01-2.342-.669-4.013 3.68-1.17.668-4.014 3.846.167 2.007-3.679 3.679 1.505 3.01-2.675z" stroke="#EF7F1A" stroke-width="2.174" stroke-miterlimit="22.926" stroke-linecap="round" stroke-linejoin="round"/><path d="M38.712 23H22.157v9.197h16.555V23zM21.99 41.73h32.107M21.99 47.582h18.729m-18.729 6.02h26.087M21.99 59.455h18.729" stroke="#EF7F1A" stroke-width="2.174" stroke-miterlimit="22.926" stroke-linecap="round" stroke-linejoin="round"/><path d="M80.351 55.776h-4.18v8.194h4.18v-8.194zm-4.181.836c-1.003-.669-1.839-1.505-2.508-2.174-.502-.501-.836-1.003-1.003-1.505a21.016 21.016 0 00-.502-1.672c0-.502 0-.836-.167-1.17 0-.335-.167-.502-.334-.502-.168-.167-.502 0-.67 0-.334 0-.501.167-.668.334-.168.335-.335.836-.335 1.338a4.077 4.077 0 000 2.007c0 .669.167 1.337.335 1.672.167.502.334.669.334.669.167.167 0 .167-.836.167h-3.512c-.836 0-1.003.167-1.003.334a2.307 2.307 0 00-.502.67c0 .167 0 .501.167.668 0 .335.335.502.502.67v.166c-.167.168-.167.335-.167.502a.508.508 0 000 .669c.167.167.334.502.502.502.167.167.167.167.167.334.167 0 0 0 0 .167-.167.168-.167.335-.167.67 0 .334 0 .5.334.835.167.168.502.335.669.335.167.167 0 .167 0 .334 0 0-.167.168-.167.335.167.167.167.501.334.669.335.334.502.501 1.672.501 1.004 0 3.01 0 4.348-.167 1.505-.334 2.341-.669 3.178-1.17" stroke="#EF7F1A" stroke-width="1.171" stroke-miterlimit="22.926" stroke-linecap="round" stroke-linejoin="round"/></svg>