<svg width="101" height="81" fill="none" xmlns="http://www.w3.org/2000/svg"><path clip-rule="evenodd" d="M41.746 16.803h-5.882v14.705c7.62 0 13.77 6.15 13.77 13.77 0 7.62-6.15 13.77-13.77 13.77v14.706h5.882v-6.417a20.954 20.954 0 005.615-2.406l4.545 4.679 8.29-8.289-4.546-4.679c.936-1.738 1.738-3.61 2.273-5.481h6.55V39.396h-6.55a22.473 22.473 0 00-2.273-5.481l4.545-4.68-8.289-8.288-4.545 4.545c-1.738-.935-3.61-1.738-5.615-2.272v-6.417 0z" stroke="#EF7F1A" stroke-width="2.139" stroke-miterlimit="22.926" stroke-linecap="round" stroke-linejoin="round"/><path d="M35.195 52.364a6.952 6.952 0 100-13.904 6.952 6.952 0 000 13.904z" stroke="#EF7F1A" stroke-width="1.07" stroke-miterlimit="22.926" stroke-linecap="round" stroke-linejoin="round"/><path d="M30.516 40.332H24.1v-9.225m4.143 14.305h-12.7m14.973 5.08H24.1v9.626m-.135 7.754a3.877 3.877 0 100-7.754 3.877 3.877 0 000 7.754zm0-36.765a3.877 3.877 0 100-7.754 3.877 3.877 0 000 7.754zM11.8 48.888a3.877 3.877 0 100-7.754 3.877 3.877 0 000 7.754z" stroke="#EF7F1A" stroke-width="1.07" stroke-miterlimit="22.926" stroke-linecap="round" stroke-linejoin="round"/><path d="M72.628 11.722H1.64v67.246h70.99V11.722z" stroke="#EF7F1A" stroke-width="2.139" stroke-miterlimit="22.926" stroke-linecap="round" stroke-linejoin="round"/><path d="M99.366 28.7H72.628v41.712h26.738V28.701z" stroke="#EF7F1A" stroke-width="2.139" stroke-miterlimit="22.926" stroke-linecap="round" stroke-linejoin="round"/><path clip-rule="evenodd" d="M8.992 1.428h57.487l6.15 10.294H1.638L8.992 1.428zM72.628 21.08h22.06L99.5 28.7H72.628v-7.62z" stroke="#EF7F1A" stroke-width="2.139" stroke-miterlimit="22.926" stroke-linecap="round" stroke-linejoin="round"/><path d="M95.088 35.92h-22.46v6.417h22.46V35.92zm0 11.364h-22.46V53.7h22.46v-6.417zm0 11.364h-22.46v6.417h22.46v-6.417z" stroke="#EF7F1A" stroke-width="1.07" stroke-miterlimit="22.926" stroke-linecap="round" stroke-linejoin="round"/></svg>