<svg width="100" height="78" fill="none" xmlns="http://www.w3.org/2000/svg"><path clip-rule="evenodd" d="M79.404 3.93c3.96 0 7.085 3.23 7.085 7.085v3.96a7.007 7.007 0 01-3.855 6.251 6.768 6.768 0 01-3.23.834c-1.25 0-2.5-.417-3.543-1.042V6.639H79.3v-2.71h.104zm-59.079 0h.209v2.709h3.021v14.587a6.768 6.768 0 01-3.23.834c-3.96 0-7.085-3.23-7.085-7.085v-3.96c0-3.855 3.126-7.085 7.085-7.085v0z" stroke="#EF7F1A" stroke-width="2.188" stroke-miterlimit="22.926" stroke-linecap="round" stroke-linejoin="round"/><path clip-rule="evenodd" d="M75.861 6.639v15.63c0 10.21-8.336 18.546-18.547 18.546H42.102c-10.211 0-18.547-8.336-18.547-18.547V6.64H43.04l-.521 1.146-3.439-.104-.52 3.438-3.335 1.042.73 3.543-2.71 2.084 1.876 3.021-1.876 2.814 2.71 2.292-.73 3.334 3.439 1.146.416 3.335h3.543l1.563 3.021 3.334-1.354 2.5 2.396 2.71-2.396 3.126 1.354 1.667-3.125 3.438.104.521-3.439 3.335-1.042-.73-3.542 2.71-2.084L64.92 20.6l1.875-2.813-2.709-2.292.73-3.335-3.439-1.146-.417-3.334h-3.54l-.521-1.042H75.86v0z" stroke="#EF7F1A" stroke-width="2.188" stroke-miterlimit="22.926" stroke-linecap="round" stroke-linejoin="round"/><path clip-rule="evenodd" d="M20.534 2.054H79.3V6.64H56.898l-1.042-1.98-3.334 1.355-2.501-2.397-2.71 2.397-3.125-1.355-1.146 1.98H20.534V2.054z" stroke="#EF7F1A" stroke-width="2.188" stroke-miterlimit="22.926" stroke-linecap="round" stroke-linejoin="round"/><path clip-rule="evenodd" d="M50.02 3.617l2.502 2.397 3.334-1.355 1.563 3.022h3.542l.417 3.334 3.439 1.146-.73 3.335 2.71 2.292L64.92 20.6l1.875 3.022-2.709 2.084.73 3.542-3.335 1.042-.52 3.439-3.44-.104-1.666 3.125-3.126-1.354-2.71 2.396-2.5-2.396-3.334 1.354-1.563-3.021H39.08l-.416-3.335-3.439-1.146.73-3.334-2.71-2.292 1.876-2.814-1.876-3.021 2.71-2.084-.73-3.543 3.334-1.042.521-3.438 3.439.104 1.667-3.126 3.126 1.355 2.709-2.397z" stroke="#EF7F1A" stroke-width="2.188" stroke-miterlimit="22.926" stroke-linecap="round" stroke-linejoin="round"/><path clip-rule="evenodd" d="M50.02 8.41l1.772 1.668 2.397-.938 1.146 2.188h2.605l.312 2.396 2.397.834-.521 2.396 1.98 1.667-1.355 2.084 1.354 2.188-1.98 1.46.522 2.5-2.293.73-.416 2.5-2.501-.104-1.25 2.292-2.293-.938L50.021 33l-1.772-1.667-2.396.938-1.146-2.188h-2.605l-.313-2.397-2.396-.833.52-2.397-1.979-1.563 1.355-2.084-1.355-2.188 1.98-1.563-.521-2.5 2.292-.73.417-2.5 2.5.104 1.251-2.292 2.292.938 1.876-1.668z" stroke="#EF7F1A" stroke-width="1.042" stroke-miterlimit="22.926" stroke-linecap="round" stroke-linejoin="round"/><path clip-rule="evenodd" d="M47.52 15.704V12.89h5.835v2.813h-1.459v10.003h1.459v2.813H47.52v-2.813h1.459V15.704H47.52zm-7.606 48.867l1.042 1.355 1.667.625-.938 1.355-.104 1.875-1.563-.52-1.771.52v-1.667l-1.042-1.563 1.563-.52 1.146-1.46zm10.628 0l1.042 1.355 1.667.625-.938 1.355-.104 1.875-1.563-.52-1.771.52v-1.667l-1.042-1.563 1.563-.52 1.146-1.46zm10.94 0l.938 1.355 1.771.625-.938 1.355-.104 1.875-1.667-.52-1.667.52-.104-1.667-.938-1.563 1.563-.52 1.146-1.46z" stroke="#EF7F1A" stroke-width="1.042" stroke-miterlimit="22.926" stroke-linecap="round" stroke-linejoin="round"/><path d="M55.23 40.815H44.707c-1.727 0-3.126.793-3.126 1.771 0 .979 1.4 1.772 3.126 1.772H55.23c1.727 0 3.126-.793 3.126-1.772 0-.978-1.4-1.771-3.126-1.771zm.417 3.543H44.186v5.835h11.461v-5.835z" stroke="#EF7F1A" stroke-width="2.188" stroke-miterlimit="22.926" stroke-linecap="round" stroke-linejoin="round"/><path clip-rule="evenodd" d="M68.463 57.278c-1.146-4.064-7.293-7.086-14.691-7.086h-7.815c-7.398 0-13.545 3.022-14.691 7.086h37.197v0z" stroke="#EF7F1A" stroke-width="2.188" stroke-miterlimit="22.926" stroke-linecap="round" stroke-linejoin="round"/><path d="M77.737 57.278h-55.64v19.588h55.64V57.278z" stroke="#EF7F1A" stroke-width="2.188" stroke-miterlimit="22.926" stroke-linecap="round" stroke-linejoin="round"/><path d="M67.734 61.029h-35.53V73.01h35.53V61.03z" stroke="#EF7F1A" stroke-width="1.042" stroke-miterlimit="22.926" stroke-linecap="round" stroke-linejoin="round"/><path clip-rule="evenodd" d="M83.572 53.944c.208-1.355.312-3.752 1.25-5.106.833-1.355 2.292-1.771 4.793-2.084 2.5-.417 5.939-.625 7.502-.73 1.563 0 1.25.209.313 1.668-.834 1.354-2.293 3.96-3.439 5.73-1.146 1.772-1.98 2.814-3.855 3.126-1.876.313-4.793-.104-6.043-.416-1.25-.417-.834-.834-.522-2.188v0zm3.958-11.983c0-1.355-.207-3.438.314-4.793.416-1.25 1.77-1.875 3.959-2.605 2.084-.73 5.106-1.563 6.46-1.771 1.355-.313 1.042-.104.521 1.354-.521 1.355-1.355 3.856-2.084 5.627-.73 1.771-1.25 2.813-2.917 3.334-1.563.625-4.272.73-5.418.625-1.147-.104-.834-.52-.834-1.77v0zm-2.604-9.169c-.313-.938-1.146-2.397-1.25-3.439 0-1.146.73-1.98 2.084-3.125 1.25-1.147 3.125-2.71 4.063-3.335.834-.625.73-.312.73.834s.208 3.23.208 4.689c.104 1.459 0 2.396-.938 3.23-1.042.938-2.813 1.875-3.75 2.188-.834.208-.73-.209-1.147-1.042v0zM16.47 53.944c-.313-1.355-.417-3.752-1.25-5.106-.834-1.355-2.397-1.771-4.898-2.084-2.5-.417-5.939-.625-7.501-.73-1.46 0-1.147.209-.313 1.668.938 1.354 2.396 3.96 3.543 5.73 1.042 1.772 1.875 2.814 3.855 3.126 1.875.313 4.793-.104 6.043-.416 1.25-.417.834-.834.521-2.188v0zm-3.96-11.983c-.104-1.355.209-3.438-.312-4.793-.52-1.25-1.771-1.875-3.96-2.605-2.187-.73-5.105-1.563-6.46-1.771-1.354-.313-1.146-.104-.52 1.354.52 1.355 1.354 3.856 2.083 5.627.73 1.771 1.25 2.813 2.814 3.334 1.667.625 4.376.73 5.522.625 1.146-.104.834-.52.834-1.77v0zm2.501-9.169c.417-.938 1.25-2.397 1.25-3.439.105-1.146-.624-1.98-1.979-3.125-1.25-1.147-3.126-2.71-4.064-3.335-.833-.625-.729-.312-.833.834 0 1.146-.104 3.23-.209 4.689 0 1.459.105 2.396 1.042 3.23.938.938 2.814 1.875 3.647 2.188.938.208.834-.209 1.146-1.042v0z" stroke="#EF7F1A" stroke-width="1.042" stroke-miterlimit="22.926"/></svg>