<svg width="101" height="95" fill="none" xmlns="http://www.w3.org/2000/svg"><path d="M93.164 79.957H7.419c-3.27 0-5.919 3.051-5.919 6.815 0 3.763 2.65 6.814 5.919 6.814h85.745c3.269 0 5.918-3.05 5.918-6.814 0-3.764-2.65-6.815-5.918-6.815z" stroke="#EF7F1A" stroke-width="2.336" stroke-miterlimit="22.926" stroke-linecap="round" stroke-linejoin="round"/><path d="M8.976 90.237a3.349 3.349 0 100-6.697 3.349 3.349 0 000 6.697zm13.474 0a3.349 3.349 0 100-6.697 3.349 3.349 0 000 6.697zm14.096 0a3.349 3.349 0 100-6.697 3.349 3.349 0 000 6.697zm13.628 0a3.349 3.349 0 100-6.697 3.349 3.349 0 000 6.697zm13.629 0a3.349 3.349 0 100-6.697 3.349 3.349 0 000 6.697zm13.941 0a3.349 3.349 0 100-6.697 3.349 3.349 0 000 6.697zm14.096 0a3.349 3.349 0 100-6.697 3.349 3.349 0 000 6.697z" stroke="#EF7F1A" stroke-width="1.168" stroke-miterlimit="22.926" stroke-linecap="round" stroke-linejoin="round"/><path d="M93.086 44.289h-47.04v35.668h47.04V44.29zm-23.52 0v35.668" stroke="#EF7F1A" stroke-width="2.336" stroke-miterlimit="22.926" stroke-linecap="round" stroke-linejoin="round"/><path d="M66.295 47.638H49.162v18.924h17.133V47.638zm23.675 0H72.838v11.37h17.134v-11.37zm0 13.162H72.838v5.684h17.134V60.8zm-9.345 8.176h-7.788v5.686h7.788v-5.686zm9.424 0H82.65v5.686h7.398v-5.686z" stroke="#EF7F1A" stroke-width="1.168" stroke-miterlimit="22.926" stroke-linecap="round" stroke-linejoin="round"/><path d="M16.92 56.36a2.57 2.57 0 100-5.14 2.57 2.57 0 000 5.14z" stroke="#EF7F1A" stroke-width="2.336" stroke-miterlimit="22.926" stroke-linecap="round" stroke-linejoin="round"/><path clip-rule="evenodd" d="M19.724 28.168v18.068c-.701-.078-1.402-.156-2.18-.156H16.53c-.78 0-1.48.078-2.181.156V28.402c.7.233 1.558.389 2.414.389 1.09 0 2.103-.234 2.96-.623v0z" stroke="#EF7F1A" stroke-width="2.336" stroke-miterlimit="22.926" stroke-linecap="round" stroke-linejoin="round"/><path d="M16.764 23.962a2.414 2.414 0 100-4.828 2.414 2.414 0 000 4.828z" stroke="#EF7F1A" stroke-width="2.336" stroke-miterlimit="22.926" stroke-linecap="round" stroke-linejoin="round"/><path clip-rule="evenodd" d="M43.71 7.452l-20.015 12.15c-.467-1.792-1.713-3.35-3.27-4.284L42.153 2h27.569v5.452H43.71v0zM16.53 46.08h1.013c4.907 0 8.878 2.492 8.878 5.53v28.347H7.652V51.61c0-3.037 3.972-5.529 8.879-5.529v0z" stroke="#EF7F1A" stroke-width="2.336" stroke-miterlimit="22.926" stroke-linecap="round" stroke-linejoin="round"/><path d="M16.764 28.79a7.243 7.243 0 100-14.484 7.243 7.243 0 000 14.485z" stroke="#EF7F1A" stroke-width="2.336" stroke-miterlimit="22.926" stroke-linecap="round" stroke-linejoin="round"/><path d="M67.386 7.452h-3.583v6.698h3.583V7.452zm8.177 6.698H55.548v8.177h20.015V14.15zm-15.498 8.255h-2.492v4.906h2.492v-4.906zm13.395 0h-2.492v4.906h2.492v-4.906z" stroke="#EF7F1A" stroke-width="1.168" stroke-miterlimit="22.926" stroke-linecap="round" stroke-linejoin="round"/></svg>