<svg width="71" height="80" fill="none" xmlns="http://www.w3.org/2000/svg"><path d="M18.46 15.765H5.037v34.079H18.46V15.765zm16.007 0H20.01v34.079h14.457V15.765zm16.523 0H36.533v34.079H50.99V15.765zm15.49 0H53.056v34.079H66.48V15.765z" stroke="#EF7F1A" stroke-width="1.033" stroke-miterlimit="22.926" stroke-linecap="round" stroke-linejoin="round"/><path clip-rule="evenodd" d="M1.422 12.667h68.156v7.745h-.516v33.046H45.827v-.516H1.422V12.667z" stroke="#EF7F1A" stroke-width="2.065" stroke-miterlimit="22.926" stroke-linecap="round" stroke-linejoin="round"/><path d="M8.65 60.17v12.393m7.23-12.393v12.393m7.228-12.393v12.393m7.229-12.393v12.393m7.228-12.393v12.393M45.31 60.17v12.393m6.713-12.393v12.393m7.745-12.393v12.393" stroke="#EF7F1A" stroke-width="1.033" stroke-miterlimit="22.926" stroke-linecap="round" stroke-linejoin="round"/><path clip-rule="evenodd" d="M69.062 12.667l.516.517v2.581h-.516v62.477H45.827v-.516H1.422V12.667h67.64z" stroke="#EF7F1A" stroke-width="2.065" stroke-miterlimit="22.926" stroke-linecap="round" stroke-linejoin="round"/><path clip-rule="evenodd" d="M7.618 1.308h55.764l5.68 11.36H1.422l6.196-11.36v0z" stroke="#EF7F1A" stroke-width="2.065" stroke-miterlimit="22.926" stroke-linecap="round" stroke-linejoin="round"/><path d="M12.265 4.406L9.683 9.053m9.811-4.647L18.46 9.053m8.779-4.647l-.517 4.647M35.5 4.406v4.647m15.49-4.647l1.033 4.647m6.196-4.647l2.582 4.647-2.582-4.647zm-22.719 0v4.647-4.647zm7.745 0l.516 4.647-.516-4.647z" stroke="#EF7F1A" stroke-width="1.033" stroke-miterlimit="22.926" stroke-linecap="round" stroke-linejoin="round"/></svg>