<svg width="31" height="21" fill="none" xmlns="http://www.w3.org/2000/svg"><path clip-rule="evenodd" d="M11 19.312h14.286c2.857 0 4.285-1.428 4.285-4.285v-10c0-1.429-1.428-4.286-4.285-4.286H11C9.571.74 7.625 1.9 6.714 3.598 3.562 4.339.937 6.303.937 10.589c0 2.857 2.92 5.866 5.777 5.866 1.429 1.429 2.857 2.857 4.286 2.857z" stroke="#EF7F1A" stroke-width="1.429" stroke-miterlimit="22.926"/><path d="M7.955 13.223a2.857 2.857 0 100-5.714 2.857 2.857 0 000 5.714zm8.759 1.804v-10s3.715 0 3.715 2.857-3.286 2.857-3.286 2.857m-1.857 2.857h3.286" stroke="#EF7F1A" stroke-width="1.429" stroke-miterlimit="22.926" stroke-linecap="round" stroke-linejoin="round"/></svg>