<svg width="55" height="39" fill="none" xmlns="http://www.w3.org/2000/svg"><path fill-rule="evenodd" clip-rule="evenodd" d="M17.551 6.914V2.696h-7.21v10.239c0 .135-1.157 1.02-1.26 1.122-.237.204-.442.34-.646.544-.238.204-.442.34-.68.544-.408.409-.85.715-1.292 1.089L3.878 18.41a2.202 2.202 0 01-.307.272l-3.4 2.857c-.103.102-.103.068-.171.17h10.34v16.973h8.095c.102 0 .102-.068.17-.17.035-.102.069-.136.102-.238.102-.136.17-.273.273-.409l1.462-2.619c.136.068.884 1.531.987 1.701l.986 1.735h2.79c0-.272-3.3-5.783-3.3-5.987 0-.068.714-1.292.816-1.462.272-.545.544-1.02.85-1.53l1.463-2.586a3.71 3.71 0 01.204-.374H22.45l-1.497 2.585c-.102.204-.408.646-.476.884l-.136-.204c-.578-1.088-1.292-2.21-1.87-3.299h-2.756c0 .102.068.204.136.306l1.565 2.79c.102.203.238.407.34.611l.714 1.259c.17.306.374.612.51.918.103.204-.271.68-.408.953l-1.598 2.789c-.068.102-.102.272-.204.272h-4.422V19.635h-6.7c.17-.238 2.482-2.075 2.924-2.483.17-.136.307-.238.443-.374l2.959-2.449c.068-.068.374-.306.374-.408V4.737h3.13v6.599l5.747-4.796c.102-.068.205-.17.307-.238a2.2 2.2 0 01.306-.272c.782-.647 1.803-1.565 2.585-2.177.102-.068.17-.136.306-.238a2.2 2.2 0 01.306-.272c.102-.102.204-.17.34-.272.102-.103.204-.17.306-.307.272.136.919.749 1.19.987l2.382 2.007c.068.068.102.068.136.102l.476.374c.85.748 2.38 1.973 3.13 2.653l.135.136c.136.068.204.136.306.238l1.19.986c.103.102.205.17.307.273.068.034.272.238.34.238h16.905c.136 0 .102-.068.068-.17l-.17-.817c-.068-.306-.17-.85-.272-1.088H36.667c-1.055 0-.579.034-1.497-.68l-.306-.239c-.102-.068-.17-.136-.272-.238l-.442-.374a123.108 123.108 0 00-3.232-2.687l-1.632-1.36-.136-.137-3.266-2.72c-.068-.069-.068-.103-.136-.137-.204.034-.374.272-.51.408l-1.02.817c-.102.102-.17.136-.272.238l-3.164 2.653c-.748.612-1.428 1.258-2.177 1.837l-.782.646a1.42 1.42 0 01-.272.204zm12.823 22.04c.102.069.17.477.17.613l1.02 4.83h-2.346l1.156-5.442zm8.98 6.974c0 .408-.34.68-.783.714-.476.034-1.088 0-1.564 0l.476 2.075c1.53 0 2.551 0 3.708-.919a1.96 1.96 0 00.442-.476c.102-.136.17-.238.238-.374.17-.272.306-.578.408-.85l.578-1.905c.442-1.259.816-2.483 1.225-3.741.068-.205 1.19-3.572 1.19-3.742H42.45l-1.463 5.238c-.068.17-.204.612-.204.782l-.646-1.496c-.204-.51-.408-.987-.612-1.497l-.885-2.279c-.068-.136-.102-.272-.136-.374-.068-.136-.136-.272-.136-.374H35.68c.068.204.34.884.442 1.156.17.375.307.749.477 1.157l2.755 6.905zm6.837-6.599v6.7c0 .92.51 1.701 1.224 2.143 1.327.85 4.082.85 5.51 0 .306-.203.646-.51.85-.85.51-.918.375-1.803.375-2.959h-2.517c0 1.089.238 2.449-1.157 2.449-.85 0-1.633-.034-1.633-1.224V29.77c0-.952.51-1.258 1.497-1.258 1.463 0 1.293 1.122 1.293 2.04h2.517c0-1.36.136-2.448-1.225-3.333-.578-.408-1.224-.51-1.905-.612-.34-.034-1.292-.068-1.632 0-1.02.136-1.973.374-2.62 1.156-.305.34-.578.987-.578 1.565zm-20.34 9.354h2.448l.442-1.973c0-.102 0-.204.137-.204h3.197l.204 1.054c.068.374.17.749.238 1.123h2.721l-.374-1.667c-.034-.17-.102-.442-.136-.578h.782l-.476-2.041h-.748l-1.565-6.7-.102-.51c-.034-.103-.102-.341-.102-.477h-3.844c-.136 0-.136.17-.17.306-.238 1.259-.68 2.79-.952 4.116-.102.476-.238.986-.34 1.496L26.02 37.9a5.587 5.587 0 00-.103.375c0 .136-.068.272-.068.408z" fill="#EF7D00"/><path fill-rule="evenodd" clip-rule="evenodd" d="M35.646 12.866v11.871h2.721v-2.143h2.994v2.143h2.619c.068 0 .102-.034.102-.102V12.866c0-.102-.034-.102-.102-.102h-2.62v7.79h-2.993v-7.688c0-.102-.034-.102-.136-.102h-2.483c-.068 0-.102 0-.102.102zM25.612 24.703h2.653v-3.64c0-.067.306-.441.374-.51.102-.136.375-.476.409-.578.136.102.102.136.17.272l.816 1.497c.204.408 1.565 2.79 1.599 2.96h2.789c-.034-.137-.34-.681-.442-.851-.613-1.02-1.259-2.245-1.837-3.266l-1.429-2.482c.613-.919 1.225-1.77 1.837-2.654l.884-1.36c.17-.238.306-.408.476-.646.137-.238.307-.476.443-.68h-2.721c-.034.101-.273.442-.374.612-.17.204-.307.374-.443.578-.272.442-.544.816-.85 1.224l-1.7 2.45v-4.865h-2.654v11.94zm24.286-9.728c0 .17.102.51.136.68.068.239.136.51.17.715.102.476.204.952.34 1.428l.612 2.79h-2.55c.408-1.701.782-3.572 1.19-5.273.034-.068.034-.068.034-.17l.068-.17zm-4.558 9.762h2.45c.17-.714.305-1.428.475-2.109h3.3c0 .204.408 2.041.442 2.11h2.72l-.51-2.11H55l-.442-2.04h-.782l-.68-2.96c-.069-.306-.137-.646-.239-.986l-.816-3.707c-.034-.103 0-.17-.136-.17h-3.742c-.136 0-.136.17-.17.271l-.612 2.654c-.204 1.02-.442 1.972-.68 2.993l-1.19 5.272c-.069.17-.17.578-.17.782zM19.932 22.9c-.578 0-1.224-.034-1.463-.68-.034-.17-.068-.34-.068-.544v-5.85c0-.477.102-.749.375-.953.476-.408 1.632-.374 2.074.034.272.238.34.613.34 1.089v5.578c0 .816-.374 1.326-1.258 1.326zm-4.218-6.972c0 .986-.068 5.918.068 6.564.374 1.803 2.11 2.381 3.98 2.381 1.088 0 2.177-.238 2.823-.646.714-.476 1.258-1.19 1.258-2.177v-6.633c0-.476-.17-.918-.374-1.258-.612-1.055-2.006-1.497-3.299-1.497-1.293 0-2.449.034-3.435.783-.817.612-1.02 1.428-1.02 2.483z" fill="#fff"/></svg>