<svg width="96" height="81" fill="none" xmlns="http://www.w3.org/2000/svg"><path d="M24.435 0h66.522c.434 0 .869.435.869.87v71.304c0 .435-.435.87-.87.87h-66.52c-.435 0-.87-.435-.87-.87V60.87h1.74v10h64.782V2.174H25.304V39.13h-1.739V.87c0-.435.435-.87.87-.87z" fill="#EF7F1A"/><path clip-rule="evenodd" d="M28.348 5.217h58.695v62.609H28.348V60.87h3.043v3.913h21.74V8.26H31.39v30.87h-3.043V5.216z" stroke="#EF7F1A" stroke-width=".87" stroke-miterlimit="22.926" stroke-linecap="round" stroke-linejoin="round"/><path clip-rule="evenodd" d="M31.391 8.261h21.74v56.522H31.39V60.87h13.48c2.173 0 4.347-2.174 4.347-4.783V43.478c0-2.174-2.174-4.347-4.347-4.347H31.39V8.26v0zM55.74 6.522h30v60h-30v-60 0zm2.608 3.043h24.348v53.913H58.348V36.087h-.87c-.434 0-.87-.435-.87-.87 0-.434.436-.87.87-.87h.87V9.566v0z" stroke="#EF7F1A" stroke-width=".87" stroke-miterlimit="22.926" stroke-linecap="round" stroke-linejoin="round"/><path d="M94 72.174H20.087v6.956H94v-6.956z" stroke="#EF7F1A" stroke-width="2.174" stroke-miterlimit="22.926" stroke-linecap="round" stroke-linejoin="round"/><path d="M61.391 34.348H56.61a.87.87 0 00-.87.87v.434c0 .48.39.87.87.87h4.782c.48 0 .87-.39.87-.87v-.434a.87.87 0 00-.87-.87z" stroke="#EF7F1A" stroke-width=".87" stroke-miterlimit="22.926" stroke-linecap="round" stroke-linejoin="round"/><path clip-rule="evenodd" d="M12.696 39.13H44.87c2.173 0 4.347 2.174 4.347 4.348v12.609c0 2.609-2.174 4.782-4.347 4.782H12.696c-1.74 0-3.479-1.739-3.913-3.478C4.87 56.957 1.826 53.913 1.826 50c0-3.478 3.044-6.957 6.957-7.391.434-1.74 2.174-3.479 3.913-3.479v0z" stroke="#EF7F1A" stroke-width="2.174" stroke-miterlimit="22.926"/><path d="M8.783 52.609a2.609 2.609 0 100-5.218 2.609 2.609 0 000 5.218zm27.826-3.913h-3.913v7.826h3.913v-7.826zm-3.913.869c-.87-.435-2.174-1.304-2.61-1.739-.434-.87-.869-1.304-.869-1.74 0-.434-.434-.869-.434-1.303v-1.305l-.435-.434h-.87s-.435 0-.435.434c-.434 0-.434.435-.434 1.305v1.739c0 .434 0 1.304.434 1.739 0 .435.435.435.435.435h-.87c-.869 0-2.608 0-3.478.434h-.87s-.434.435-.434.87v.435c0 .434.435.434.435.87v.869c0 .435.435.435.435.87h.434l-.434.434v.435c0 .435 0 .435.434.87l.435.434v.435c0 .435 0 .435.435.87 0 0 .435 0 1.304.434 1.305 0 3.044 0 4.348-.434 1.304 0 2.174-.435 3.044-.87" stroke="#EF7F1A" stroke-width=".87" stroke-miterlimit="22.926"/><path d="M9.652 52.174c0-.435 0-1.304-.435-1.74C8.783 50 7.478 50 6.174 50.87c-1.74.87-3.044 3.043-3.044 4.782-.434 2.174.87 4.783 2.61 6.522 2.173 1.304 5.216 2.609 7.39 3.478 2.61.87 4.348 1.74 5.218 2.609 1.304 1.304 1.304 2.609 1.739 3.913" stroke="#EF7F1A" stroke-width=".87" stroke-miterlimit="22.926"/><path d="M12.696 60.87c1.739 1.304 3.043 3.043 3.913 4.348 1.304 1.304 2.608 2.173 3.043 3.043.435 1.304.435 2.609.435 3.913" stroke="#EF7F1A" stroke-width=".87" stroke-miterlimit="22.926"/></svg>