<svg width="123" height="87" fill="none" xmlns="http://www.w3.org/2000/svg"><path d="M25.71.965h90.666c.889 0 1.481.593 1.481 1.186v75.851c0 .593-.592 1.186-1.481 1.186H25.709c-.592 0-1.185-.593-1.185-1.186V65.854h2.667v10.963h87.703V3.04H27.191v40h-2.667V2.15c0-.592.593-1.185 1.185-1.185z" fill="#EF7F1A"/><path clip-rule="evenodd" d="M32.82 9.854h31.408V70.3H32.821v-4.445h14.518c2.37 0 4.445-2.074 4.445-4.74V47.78c0-2.666-2.074-4.74-4.445-4.74H32.821V9.853v0zm34.37-1.777h42.667v64H67.191v-64 0zm2.964 2.963h36.74v58.073h-36.74V39.78h-.89c-.592 0-1.184-.592-1.184-1.185 0-.593.592-.889 1.185-.889h.889V11.04v0z" stroke="#EF7F1A" stroke-miterlimit="22.926" stroke-linecap="round" stroke-linejoin="round"/><path d="M121.413 78.299H20.969v7.11h100.444V78.3z" stroke="#EF7F1A" stroke-width="2" stroke-miterlimit="22.926" stroke-linecap="round" stroke-linejoin="round"/><path d="M74.005 37.706h-4.74c-.655 0-1.185.464-1.185 1.037s.53 1.037 1.185 1.037h4.74c.655 0 1.186-.464 1.186-1.037s-.53-1.037-1.186-1.037z" stroke="#EF7F1A" stroke-miterlimit="22.926" stroke-linecap="round" stroke-linejoin="round"/><path clip-rule="evenodd" d="M13.265 43.04h34.074c2.37 0 4.444 2.074 4.444 4.74v13.334c0 2.666-2.074 4.74-4.444 4.74H13.265c-2.37 0-4.148-1.481-4.74-3.555-3.853-.297-7.112-3.556-7.112-7.704s3.26-7.407 7.111-7.704c.593-2.37 2.37-3.852 4.74-3.852v0z" stroke="#EF7F1A" stroke-width="2" stroke-miterlimit="22.926"/><path d="M8.82 57.262a2.963 2.963 0 100-5.926 2.963 2.963 0 000 5.926zm29.63-3.852h-4.148v8.296h4.148V53.41zm-4.148.592c-1.186-.592-2.074-1.481-2.667-2.074-.593-.592-.889-1.185-.889-1.481-.296-.593-.592-1.185-.592-1.778 0-.296 0-.889-.297-1.185 0-.296 0-.296-.296-.593h-.593c-.296.297-.592.297-.592.593-.297.296-.297.593-.593 1.185v2.074c.296.593.296 1.185.593 1.778 0 .296.296.593.296.593 0 .296 0 .296-.889.296h-3.555c-.89 0-.89 0-1.186.296 0 0-.296.296-.296.593v.592c.296.297.593.593.593.89 0 .296-.297.296-.297.592s0 .296.297.592c0 .297.296.593.296.593l.296.296v.297c-.296 0-.296.296-.296.592s.296.593.296.593c.297.296.593.592.89.592v.297c-.297 0-.297 0-.297.296s.296.593.592.889c0 0 .297.296 1.482.296s2.963 0 4.444-.296c1.482 0 2.37-.593 3.26-.889" stroke="#EF7F1A" stroke-miterlimit="22.926"/><path d="M9.71 56.965c0-.889.296-1.777-.297-2.074-.889-.592-2.074-.592-3.555.593-1.482.889-2.963 2.963-3.26 5.333 0 2.074.89 4.741 2.963 6.519 2.074 1.778 5.334 2.963 8 3.852 2.37.888 4.445 1.777 5.63 2.962 1.185 1.186 1.481 2.667 1.778 4.149" stroke="#EF7F1A" stroke-miterlimit="22.926"/><path d="M13.265 65.854c1.481 1.778 2.667 3.556 4.148 5.037 1.185 1.185 2.37 2.074 2.963 3.26.593 1.185.593 2.666.593 4.148" stroke="#EF7F1A" stroke-miterlimit="22.926"/></svg>