<svg width="101" height="75" fill="none" xmlns="http://www.w3.org/2000/svg"><path clip-rule="evenodd" d="M5.372 53.89l17.04-6.507 19.828 7.435c4.337 1.55 10.224 2.17 13.012.93l22.307-8.365L92.12 52.96c4.338 1.549 5.577 3.717 2.789 4.957L55.252 72.478c-2.788 1.24-8.675.62-13.012-.93L8.16 58.847c-4.337-1.549-5.577-3.718-2.788-4.957v0z" stroke="#EF7F1A" stroke-width="2" stroke-miterlimit="22.926"/><path clip-rule="evenodd" d="M17.455 54.509l11.773-4.338L42.24 54.82c4.337 1.549 10.224 2.168 13.012.929l15.8-5.577 9.915 3.408c3.098 1.24 4.028 2.789 1.859 3.718L54.013 68.141c-2.169.62-6.506.31-9.604-.93l-25.095-9.294c-3.099-.93-4.028-2.789-1.86-3.408v0z" stroke="#EF7F1A" stroke-miterlimit="22.926" stroke-linecap="round" stroke-linejoin="round"/><path clip-rule="evenodd" d="M5.372 37.159l22.307-8.055 14.56 5.267c4.338 1.549 10.225 2.168 13.013.93l17.35-6.197L92.12 36.23c4.338 1.549 5.577 3.717 2.789 4.957L55.252 55.748c-2.788 1.24-8.675.62-13.012-.93L8.16 42.117c-4.337-1.549-5.577-3.718-2.788-4.957v0z" stroke="#EF7F1A" stroke-width="2" stroke-miterlimit="22.926"/><path clip-rule="evenodd" d="M17.455 37.779l16.73-6.197 8.055 2.789c4.337 1.549 10.224 2.168 13.012.93l10.844-3.719 14.871 5.577c3.098.93 4.028 2.788 1.859 3.408L54.013 51.41c-2.169.62-6.506.31-9.604-.62l-25.095-9.294c-3.099-1.239-4.028-3.098-1.86-3.717v0z" stroke="#EF7F1A" stroke-miterlimit="22.926"/><path d="M42.206 3.067L8.036 15.793c-4.371 1.629-4.371 4.268 0 5.896l34.17 12.727c4.371 1.628 11.459 1.628 15.83 0l34.17-12.727c4.371-1.628 4.371-4.267 0-5.896L58.036 3.067c-4.371-1.628-11.459-1.628-15.83 0z" stroke="#EF7F1A" stroke-width="2" stroke-miterlimit="22.926"/><path d="M44.325 7.27l-25.01 9.314c-3.199 1.191-3.199 3.123 0 4.315l25.01 9.314c3.199 1.192 8.386 1.192 11.585 0L80.92 20.9c3.199-1.192 3.199-3.124 0-4.315L55.91 7.269c-3.199-1.191-8.386-1.191-11.585 0z" stroke="#EF7F1A" stroke-miterlimit="22.926"/><path d="M27.369 13.613v10.224m7.126-13.012v15.49M42.86 7.726v21.997m8.674-23.546v25.096M59.9 8.966v19.518m7.125-17.04v14.562m7.745-11.774v8.675" stroke="#EF7F1A" stroke-miterlimit="22.926" stroke-linecap="round"/><path d="M16.215 55.748l67.85.31M26.75 60.705h47.09m-34.698 4.647h21.067M26.13 51.1l7.435.62m34.08-.62l7.745.62" stroke="#EF7F1A" stroke-miterlimit="22.926" stroke-linecap="round" stroke-linejoin="round"/></svg>