<svg width="93" height="87" fill="none" xmlns="http://www.w3.org/2000/svg"><path clip-rule="evenodd" d="M16.144 6.254h28.148c0 1.111.74 1.852 1.852 1.852 1.11 0 1.852-.74 1.852-1.852h28.148c5.555 0 9.63 4.444 9.63 9.63v25.555c-.742 0-1.482.741-1.482 1.852 0 .74.74 1.482 1.481 1.482v25.925c0 5.186-4.074 9.63-9.63 9.63H47.996c0-1.111-.74-1.852-1.851-1.852s-1.852.741-1.852 1.852H16.144c-5.185 0-9.63-4.444-9.63-9.63V44.773c1.111 0 1.852-.741 1.852-1.482 0-1.111-.74-1.852-1.852-1.852V15.884c0-5.186 4.445-9.63 9.63-9.63v0z" stroke="#EF7F1A" stroke-miterlimit="22.926" stroke-linecap="round" stroke-linejoin="round"/><path d="M81.329 1.44h-70c-5.523 0-10 4.974-10 11.11v61.852c0 6.137 4.477 11.111 10 11.111h70c5.523 0 10-4.974 10-11.11V12.55c0-6.136-4.477-11.11-10-11.11z" stroke="#EF7F1A" stroke-width="2" stroke-miterlimit="22.926" stroke-linecap="round" stroke-linejoin="round"/><path d="M46.514 74.032c16.978 0 30.74-13.763 30.74-30.741s-13.762-30.74-30.74-30.74c-16.978 0-30.74 13.762-30.74 30.74 0 16.978 13.763 30.74 30.74 30.74z" stroke="#EF7F1A" stroke-width="2" stroke-miterlimit="22.926" stroke-linecap="round" stroke-linejoin="round"/><path d="M46.144 18.476h.37c13.333 0 24.444 11.111 24.444 24.815 0 13.334-11.11 24.445-24.444 24.445-13.704 0-24.815-11.112-24.815-24.445 0-8.148 4.074-15.926 11.111-20.74" stroke="#EF7F1A" stroke-miterlimit="22.926" stroke-linecap="round" stroke-linejoin="round"/><path clip-rule="evenodd" d="M46.144 78.476c1.11 0 1.852.741 1.852 1.852 0 .74-.741 1.852-1.852 1.852-1.111 0-1.852-1.111-1.852-1.852 0-1.111.74-1.852 1.852-1.852zM5.033 43.291c0-1.111.74-1.852 1.481-1.852 1.111 0 1.852.741 1.852 1.852 0 .74-.74 1.482-1.852 1.482-.74 0-1.481-.741-1.481-1.482v0zm41.11-38.518c1.112 0 1.853.74 1.853 1.481 0 1.111-.741 1.852-1.852 1.852-1.111 0-1.852-.74-1.852-1.852 0-.74.74-1.481 1.852-1.481v0zm38.15 38.517c0-1.111.74-1.852 1.481-1.852 1.112 0 1.852.741 1.852 1.852 0 .74-.74 1.482-1.852 1.482-.74 0-1.481-.741-1.481-1.482z" stroke="#EF7F1A" stroke-miterlimit="22.926" stroke-linecap="round" stroke-linejoin="round"/><path d="M46.144 45.143a1.852 1.852 0 100-3.704 1.852 1.852 0 000 3.704zm0-3.703V18.846m-1.852 24.445H32.44m-7.407-17.407l7.777-3.334-3.703 7.408" stroke="#EF7F1A" stroke-miterlimit="22.926" stroke-linecap="round" stroke-linejoin="round"/></svg>