<svg width="103" height="86" fill="none" xmlns="http://www.w3.org/2000/svg"><path clip-rule="evenodd" d="M13.194 17.478h4.085c0 2.042 1.225 3.268 2.859 3.268H32.39c.409 0 1.225 0 1.634-.409.408.409 1.225.409 1.634.409h2.858c.409 0 1.226 0 1.634-.409.409.409.817.409 1.225.409h12.661c1.226 0 2.45-1.634 2.45-3.268h4.902c2.45 0 4.493 2.042 4.493 4.493v47.785c0 2.45-2.042 4.493-4.493 4.493H41.375v-.409a10.981 10.981 0 00-11.027-11.027A10.981 10.981 0 0019.321 73.84v.409h-6.127c-2.45 0-4.084-2.043-4.084-4.493V40.35c0 4.084 1.634 7.351 6.535 6.943l.409 4.084c0 3.267 2.45 6.126 6.126 6.126h11.027c3.267 0 6.126-2.859 6.126-6.126V31.773c0-3.267-2.859-6.126-6.126-6.126H9.11V21.97c0-2.45 1.634-4.493 4.085-4.493v0z" stroke="#EF7F1A" stroke-width="2" stroke-miterlimit="22.926" stroke-linecap="round" stroke-linejoin="round"/><path clip-rule="evenodd" d="M69.556 28.914h13.07c2.042 0 2.45 2.042 3.675 3.676l15.112 17.562v19.604a3.66 3.66 0 01-3.676 3.676h-2.859c-.408-6.127-5.31-10.62-11.436-10.62-5.717 0-10.618 4.493-11.027 10.62h-2.859a3.66 3.66 0 01-3.675-3.676V32.59a3.66 3.66 0 013.675-3.676v0z" stroke="#EF7F1A" stroke-width="2" stroke-miterlimit="22.926" stroke-linecap="round" stroke-linejoin="round"/><path d="M30.348 84.868c6.09 0 11.027-4.938 11.027-11.028 0-6.09-4.937-11.027-11.027-11.027-6.09 0-11.027 4.937-11.027 11.027 0 6.09 4.937 11.028 11.027 11.028z" stroke="#EF7F1A" stroke-width="2" stroke-miterlimit="22.926" stroke-linecap="round" stroke-linejoin="round"/><path d="M30.348 79.15a5.31 5.31 0 100-10.62 5.31 5.31 0 000 10.62z" stroke="#EF7F1A" stroke-miterlimit="22.926" stroke-linecap="round" stroke-linejoin="round"/><path d="M83.443 84.868c6.09 0 11.027-4.938 11.027-11.028 0-6.09-4.937-11.027-11.027-11.027-6.09 0-11.028 4.937-11.028 11.027 0 6.09 4.937 11.028 11.028 11.028z" stroke="#EF7F1A" stroke-width="2" stroke-miterlimit="22.926" stroke-linecap="round" stroke-linejoin="round"/><path d="M83.443 79.15a5.31 5.31 0 100-10.62 5.31 5.31 0 000 10.62z" stroke="#EF7F1A" stroke-miterlimit="22.926" stroke-linecap="round" stroke-linejoin="round"/><path clip-rule="evenodd" d="M70.781 35.04h9.394l11.027 12.662v2.858h-20.42V35.04z" stroke="#EF7F1A" stroke-miterlimit="22.926" stroke-linecap="round" stroke-linejoin="round"/><path d="M77.316 54.236H73.64c-.902 0-1.633.64-1.633 1.43 0 .79.731 1.43 1.633 1.43h3.676c.902 0 1.634-.64 1.634-1.43 0-.79-.732-1.43-1.634-1.43z" stroke="#EF7F1A" stroke-miterlimit="22.926" stroke-linecap="round" stroke-linejoin="round"/><path clip-rule="evenodd" d="M4.618 25.647h28.589c3.267 0 6.126 2.859 6.126 6.126v19.604c0 3.268-2.859 6.127-6.126 6.127H22.18c-3.676 0-6.127-2.86-6.127-6.127l-.408-4.084c-5.718.817-6.943-3.676-6.535-8.168-9.802-.409-8.985-13.478-4.492-13.478v0zM20.676 1.243l10.21 6.535c1.226.408 2.042 1.225 2.86 2.042-.818.409-1.635 2.042-1.635 3.268H19.043v.408h-.817v.408h-.408v.409l-.409.408c0 .409 0 .409-.408.817v0-9.394c0-2.45 2.042-6.126 3.676-4.9v0z" stroke="#EF7F1A" stroke-width="2" stroke-miterlimit="22.926" stroke-linecap="round" stroke-linejoin="round"/><path clip-rule="evenodd" d="M20.138 13.394H32.39v4.084c0 1.225.817 2.042 1.634 2.86-.409.408-1.225.408-1.634.408H20.138c-1.634 0-2.86-1.634-2.86-3.676 0-2.042 1.226-3.676 2.86-3.676v0z" stroke="#EF7F1A" stroke-width="1.405" stroke-miterlimit="22.926" stroke-linecap="round" stroke-linejoin="round"/><path clip-rule="evenodd" d="M52.811 1.55l-10.21 6.126c-1.226.817-2.042 1.226-2.86 2.042 1.226.817 1.634 2.043 1.634 3.676h12.661c1.226 0 2.042 1.226 2.45 2.86V6.45c0-2.859-1.633-6.126-3.675-4.9v0z" stroke="#EF7F1A" stroke-width="2" stroke-miterlimit="22.926" stroke-linecap="round" stroke-linejoin="round"/><path clip-rule="evenodd" d="M41.376 13.394h12.66c1.226 0 2.451 1.634 2.451 3.676 0 2.042-1.225 3.676-2.45 3.676H41.375c-.409 0-.817 0-1.226-.409.817-.817 1.226-1.634 1.226-2.859v-4.084 0z" stroke="#EF7F1A" stroke-width="1.405" stroke-miterlimit="22.926" stroke-linecap="round" stroke-linejoin="round"/><path d="M38.517 9.31h-3.268c-1.579 0-2.859 1.829-2.859 4.084v3.268c0 2.255 1.28 4.084 2.86 4.084h3.267c1.578 0 2.858-1.829 2.858-4.084v-3.268c0-2.255-1.28-4.084-2.858-4.084z" stroke="#EF7F1A" stroke-width="2" stroke-miterlimit="22.926" stroke-linecap="round" stroke-linejoin="round"/><path d="M12.378 38.308h21.237m-14.703 8.168h15.112" stroke="#EF7F1A" stroke-miterlimit="22.926" stroke-linecap="round" stroke-linejoin="round"/><path d="M52.152 57.188h-5.06v.873h-.767v-.873h-.62c-.392 0-.683-.035-.873-.104a1.253 1.253 0 01-.62-.5c-.16-.24-.241-.577-.241-1.009 0-.278.033-.585.098-.922l.862.148a3.313 3.313 0 00-.055.582c0 .3.064.512.192.636.128.125.368.187.719.187h.538V55.07h.768v1.136h5.06v.982zm0-2.88h-5.827v-.89h.883c-.413-.226-.686-.435-.817-.625a1.11 1.11 0 01-.198-.637c0-.332.106-.67.318-1.015l.917.34a1.413 1.413 0 00-.214.725c0 .216.066.41.197.581.128.172.307.295.538.368.351.11.735.165 1.152.165h3.051v.987zm-1.877-7.743l.127-1.02c.596.16 1.059.458 1.388.894.33.435.494.991.494 1.668 0 .852-.262 1.529-.785 2.03-.527.498-1.264.746-2.211.746-.98 0-1.741-.252-2.283-.757-.541-.505-.812-1.16-.812-1.964 0-.78.265-1.416.796-1.91.53-.494 1.276-.74 2.239-.74.058 0 .146.001.263.005v4.346c.64-.037 1.13-.218 1.47-.544.34-.325.51-.731.51-1.218 0-.362-.094-.671-.285-.927-.19-.256-.493-.46-.91-.61zm-1.596 3.243v-3.254c-.49.044-.858.168-1.103.373-.38.315-.57.722-.57 1.224 0 .453.15.835.455 1.146.303.308.71.478 1.218.51zm1.596-9.499l.127-1.02c.596.16 1.059.459 1.388.894.33.435.494.991.494 1.668 0 .852-.262 1.53-.785 2.03-.527.498-1.264.747-2.211.747-.98 0-1.741-.253-2.283-.758-.541-.504-.812-1.16-.812-1.964 0-.78.265-1.416.796-1.91.53-.493 1.276-.74 2.239-.74.058 0 .146.002.263.005v4.346c.64-.036 1.13-.218 1.47-.543.34-.326.51-.732.51-1.218 0-.362-.094-.672-.285-.928-.19-.256-.493-.459-.91-.609zm-1.596 3.243v-3.254c-.49.044-.858.169-1.103.373-.38.315-.57.723-.57 1.224 0 .454.15.836.455 1.147.303.307.71.477 1.218.51z" fill="#EF7F1A"/></svg>