<svg width="25" height="27" fill="none" xmlns="http://www.w3.org/2000/svg"><path fill-rule="evenodd" clip-rule="evenodd" d="M4.688.411s-.782 0-.782.781c-.781 0-.781.782-1.562.782 0 .78 0 .78-.781.78v1.563H.78V5.88c-.78 0-.78 0-.78.782v3.906l.781.782v1.562l.781.781v1.562h.782v.782h.781v.781l.781.782v.78c.781 0 0 0 0 0 .781 0 .781.782 1.563.782l.781 1.563.781.78c.782.782.782 0 .782.782 0 0 .78 0 .78.781l1.563.782v.78h1.564l.781.782c.781 0 .781.781.781.781h2.343l.781.782h1.563l1.562-.782h.782l.78-.78h.782l.781-.782c0-.781 0-.781.782-.781l.78-.782v-2.343h-.78v-.782h-.782v-.78h-.781L20.312 17.6h-.78l-.782-.782-.781.782h-.782l-.78.78h-.782c0 .782-.781.782-.781 1.563H13.28s-.781 0-.781-.78h-.781L10.155 17.6c0-.782-1.562-1.563-1.562-2.344h-.781v-.781l-.782-.782v-.78c-.781-.782-.781-1.563-.781-1.563 0-.782.781-.782.781-1.563h.782l.78-.781v-.781c.782-.782 1.563-.782.782-1.563V4.317l-.781-.78-.781-.782v-.781H7.03v-.782s-.781 0-.781-.78H4.687zM12.5 9.786h.781s.781.781 1.563.781h.781c0 .782.781.782.781.782v.78s.782 0 .782.782v1.563l.78.78h2.345v-.78l-.782-.782v-2.343h-.781v-.782h-.781v-.78c-.782 0-.782 0-.782-.782h-.78c0-.781-1.563-.781-1.563-.781h-.781l-.782-.782H12.5v2.344zm0-4.687h1.562v.78h2.345s.782.782 1.563.782l.781.781h.781v.782c.782 0 .782 0 .782.78l.78.782.782 1.563v1.562l.781.781v1.563h.782c.78-.781.78 0 1.562 0v-1.563l-.781-.78v-2.345l-.782-.78v-.782c-.78 0-.78-.781-.78-.781v-.782h-.782v-.78h-.781V5.88h-.782v-.781h-.78s-.782 0-.782-.782h-1.563v-.78h-2.343v-.782H12.5v2.344z" fill="#EF7F1A"/></svg>