<svg width="23" height="22" fill="none" xmlns="http://www.w3.org/2000/svg"><path d="M21.748 1.004H.635v19.842h21.113V1.005z" stroke="#EF7F1A" stroke-width="2" stroke-miterlimit="22.926" stroke-linecap="round" stroke-linejoin="round"/><path d="M7.597 14.591v-9.09h3.41c.695 0 1.251.093 1.669.279.421.181.75.465.986.85.24.38.36.778.36 1.196 0 .388-.106.754-.317 1.097-.21.344-.529.62-.955.831.55.162.972.437 1.265.825.298.389.447.848.447 1.377 0 .426-.091.822-.273 1.19-.178.364-.4.645-.664.844a2.82 2.82 0 01-.998.452c-.397.1-.885.15-1.463.15H7.597zM8.8 9.321h1.966c.533 0 .916-.036 1.147-.106.306-.091.535-.242.688-.453.157-.21.236-.475.236-.793 0-.302-.072-.567-.217-.794a1.08 1.08 0 00-.62-.471c-.269-.087-.73-.13-1.383-.13H8.8V9.32zm0 4.197h2.264c.388 0 .661-.014.818-.043.277-.05.509-.132.695-.248.186-.116.339-.283.459-.502a1.6 1.6 0 00.18-.77c0-.338-.087-.632-.261-.88a1.352 1.352 0 00-.726-.527c-.305-.103-.748-.155-1.327-.155H8.8v3.125z" fill="#EF7F1A"/></svg>