<svg width="24" height="22" fill="none" xmlns="http://www.w3.org/2000/svg"><path d="M22.878 1.004H1.765v19.842h21.113V1.005z" stroke="#EF7F1A" stroke-width="2" stroke-miterlimit="22.926" stroke-linecap="round" stroke-linejoin="round"/><path d="M13.65 20.29v-9.456h-1.63V9.398h1.63v-1.16c0-.73.065-1.274.195-1.63.178-.478.489-.865.933-1.159.452-.3 1.08-.451 1.887-.451.52 0 1.094.062 1.723.185l-.277 1.61a6.194 6.194 0 00-1.087-.103c-.56 0-.957.12-1.19.36-.232.238-.348.686-.348 1.343v1.005h2.123v1.436h-2.123v9.455H13.65z" fill="#EF7F1A"/></svg>